<mxfile host="Electron" modified="2024-03-14T09:56:47.248Z" agent="Mozilla/5.0 (Windows NT 10.0; Win64; x64) AppleWebKit/537.36 (KHTML, like Gecko) draw.io/21.2.8 Chrome/112.0.5615.165 Electron/24.2.0 Safari/537.36" etag="wj8ZC48qt2r8sRjv3nOS" version="21.2.8" type="device" pages="3">
  <diagram name="client-script" id="UVjenvhtntM5wUEz6LOy">
    <mxGraphModel dx="1036" dy="614" grid="1" gridSize="10" guides="1" tooltips="1" connect="1" arrows="1" fold="1" page="1" pageScale="1" pageWidth="827" pageHeight="1169" math="0" shadow="0">
      <root>
        <mxCell id="0" />
        <mxCell id="1" parent="0" />
        <mxCell id="rMauVLQ8UTbTfIsORrnB-155" style="edgeStyle=orthogonalEdgeStyle;rounded=0;orthogonalLoop=1;jettySize=auto;html=1;entryX=0.5;entryY=0;entryDx=0;entryDy=0;" parent="1" source="rMauVLQ8UTbTfIsORrnB-136" target="rMauVLQ8UTbTfIsORrnB-3" edge="1">
          <mxGeometry relative="1" as="geometry" />
        </mxCell>
        <mxCell id="rMauVLQ8UTbTfIsORrnB-5" style="edgeStyle=orthogonalEdgeStyle;rounded=0;orthogonalLoop=1;jettySize=auto;html=1;exitX=1;exitY=0.5;exitDx=0;exitDy=0;entryX=0.5;entryY=0;entryDx=0;entryDy=0;" parent="1" source="rMauVLQ8UTbTfIsORrnB-3" target="rMauVLQ8UTbTfIsORrnB-131" edge="1">
          <mxGeometry relative="1" as="geometry">
            <mxPoint x="479" y="280" as="targetPoint" />
          </mxGeometry>
        </mxCell>
        <mxCell id="rMauVLQ8UTbTfIsORrnB-156" style="edgeStyle=orthogonalEdgeStyle;rounded=0;orthogonalLoop=1;jettySize=auto;html=1;exitX=0.5;exitY=1;exitDx=0;exitDy=0;entryX=0.5;entryY=0;entryDx=0;entryDy=0;" parent="1" source="rMauVLQ8UTbTfIsORrnB-3" edge="1" target="rMauVLQ8UTbTfIsORrnB-12">
          <mxGeometry relative="1" as="geometry">
            <mxPoint x="379.3333333333335" y="300" as="targetPoint" />
          </mxGeometry>
        </mxCell>
        <mxCell id="rMauVLQ8UTbTfIsORrnB-3" value="download SC?" style="rhombus;whiteSpace=wrap;html=1;" parent="1" vertex="1">
          <mxGeometry x="319" y="200" width="120" height="60" as="geometry" />
        </mxCell>
        <mxCell id="rMauVLQ8UTbTfIsORrnB-28" style="edgeStyle=orthogonalEdgeStyle;rounded=0;orthogonalLoop=1;jettySize=auto;html=1;exitX=1;exitY=0.5;exitDx=0;exitDy=0;entryX=0.5;entryY=0;entryDx=0;entryDy=0;" parent="1" source="rMauVLQ8UTbTfIsORrnB-12" edge="1" target="rMauVLQ8UTbTfIsORrnB-123">
          <mxGeometry relative="1" as="geometry">
            <mxPoint x="479" y="440" as="targetPoint" />
          </mxGeometry>
        </mxCell>
        <mxCell id="rMauVLQ8UTbTfIsORrnB-153" style="edgeStyle=orthogonalEdgeStyle;rounded=0;orthogonalLoop=1;jettySize=auto;html=1;exitX=0;exitY=0.5;exitDx=0;exitDy=0;entryX=0.5;entryY=0;entryDx=0;entryDy=0;entryPerimeter=0;" parent="1" source="rMauVLQ8UTbTfIsORrnB-12" target="rMauVLQ8UTbTfIsORrnB-150" edge="1">
          <mxGeometry relative="1" as="geometry">
            <Array as="points">
              <mxPoint x="299" y="390" />
              <mxPoint x="299" y="500" />
              <mxPoint x="379" y="500" />
            </Array>
          </mxGeometry>
        </mxCell>
        <mxCell id="rMauVLQ8UTbTfIsORrnB-12" value="is NFT?" style="rhombus;whiteSpace=wrap;html=1;" parent="1" vertex="1">
          <mxGeometry x="319" y="360" width="120" height="60" as="geometry" />
        </mxCell>
        <mxCell id="rMauVLQ8UTbTfIsORrnB-13" value="yes" style="text;html=1;align=center;verticalAlign=middle;resizable=0;points=[];autosize=1;strokeColor=none;fillColor=none;" parent="1" vertex="1">
          <mxGeometry x="439" y="200" width="40" height="30" as="geometry" />
        </mxCell>
        <mxCell id="rMauVLQ8UTbTfIsORrnB-32" value="yes" style="text;html=1;align=center;verticalAlign=middle;resizable=0;points=[];autosize=1;strokeColor=none;fillColor=none;" parent="1" vertex="1">
          <mxGeometry x="439" y="360" width="40" height="30" as="geometry" />
        </mxCell>
        <mxCell id="rMauVLQ8UTbTfIsORrnB-154" style="edgeStyle=orthogonalEdgeStyle;rounded=0;orthogonalLoop=1;jettySize=auto;html=1;exitX=0.5;exitY=1;exitDx=0;exitDy=0;entryX=0.5;entryY=0;entryDx=0;entryDy=0;entryPerimeter=0;" parent="1" source="rMauVLQ8UTbTfIsORrnB-123" target="rMauVLQ8UTbTfIsORrnB-150" edge="1">
          <mxGeometry relative="1" as="geometry" />
        </mxCell>
        <mxCell id="rMauVLQ8UTbTfIsORrnB-123" value="NFT_loader()" style="shape=process;whiteSpace=wrap;html=1;backgroundOutline=1;" parent="1" vertex="1">
          <mxGeometry x="399" y="440" width="120" height="40" as="geometry" />
        </mxCell>
        <mxCell id="rMauVLQ8UTbTfIsORrnB-124" value="fungible_loader()" style="shape=process;whiteSpace=wrap;html=1;backgroundOutline=1;" parent="1" vertex="1">
          <mxGeometry x="239" y="440" width="120" height="40" as="geometry" />
        </mxCell>
        <mxCell id="rMauVLQ8UTbTfIsORrnB-133" style="edgeStyle=orthogonalEdgeStyle;rounded=0;orthogonalLoop=1;jettySize=auto;html=1;exitX=0.5;exitY=1;exitDx=0;exitDy=0;entryX=0.5;entryY=0;entryDx=0;entryDy=0;" parent="1" source="rMauVLQ8UTbTfIsORrnB-131" target="rMauVLQ8UTbTfIsORrnB-12" edge="1">
          <mxGeometry relative="1" as="geometry">
            <mxPoint x="379" y="300" as="targetPoint" />
            <Array as="points">
              <mxPoint x="459" y="340" />
              <mxPoint x="379" y="340" />
            </Array>
          </mxGeometry>
        </mxCell>
        <mxCell id="rMauVLQ8UTbTfIsORrnB-131" value="download SC" style="rounded=0;whiteSpace=wrap;html=1;" parent="1" vertex="1">
          <mxGeometry x="399" y="280" width="120" height="40" as="geometry" />
        </mxCell>
        <mxCell id="rMauVLQ8UTbTfIsORrnB-136" value="&lt;div style=&quot;font-size: 14px;&quot;&gt;&lt;font style=&quot;color: rgb(0, 0, 0); direction: ltr; letter-spacing: 0px; line-height: 120%; opacity: 1; font-size: 14px;&quot;&gt;begin&lt;/font&gt;&lt;/div&gt;" style="verticalAlign=middle;align=center;vsdxID=1;fillColor=#FFFFFF;gradientColor=none;shape=stencil(tVJBDsIgEHwNRxoEG+O51n8QS9uNCM2Ctv5eEI2ttV6Mt9md2d0MDBGFa2WnCGfOoz2qHirfErEjnINpFYIPiIiSiKK2qBq0Z1OlupNRGdHJXuKGIc1xluV5nOLsmjorxu71Psk1mJF8s83WX+USD4HD+XZ86PMkX1745KkcwFG0XnqwZsJpiY2i4RSttWwmlOuV6mbtj17m1n9ysvySf/ESwOtPa9A6RWLMv2cgtFJ+RHkD);strokeColor=#000000;spacingTop=-1;spacingBottom=-1;spacingLeft=-1;spacingRight=-1;points=[[0.5,0,0],[0.5,0.5,0],[1,0.5,0]];labelBackgroundColor=none;rounded=0;html=1;whiteSpace=wrap;fontFamily=consolas;fontSize=14;" parent="1" vertex="1">
          <mxGeometry x="319" y="80" width="120" height="40" as="geometry" />
        </mxCell>
        <mxCell id="rMauVLQ8UTbTfIsORrnB-137" value="client_script" style="text;html=1;align=left;verticalAlign=middle;resizable=0;points=[];autosize=1;strokeColor=none;fillColor=none;fontFamily=consolas;fontSize=14;" parent="1" vertex="1">
          <mxGeometry x="469" y="85" width="120" height="30" as="geometry" />
        </mxCell>
        <mxCell id="rMauVLQ8UTbTfIsORrnB-138" value="" style="edgeStyle=orthogonalEdgeStyle;rounded=0;orthogonalLoop=1;jettySize=auto;html=1;dashed=1;endArrow=none;endFill=0;" parent="1" source="rMauVLQ8UTbTfIsORrnB-139" target="rMauVLQ8UTbTfIsORrnB-136" edge="1">
          <mxGeometry relative="1" as="geometry" />
        </mxCell>
        <mxCell id="rMauVLQ8UTbTfIsORrnB-139" value="" style="strokeWidth=1;html=1;shape=mxgraph.flowchart.annotation_2;align=left;labelPosition=right;pointerEvents=1;rounded=0;fontFamily=consolas;fontSize=14;" parent="1" vertex="1">
          <mxGeometry x="459" y="83.75" width="10" height="32.5" as="geometry" />
        </mxCell>
        <mxCell id="rMauVLQ8UTbTfIsORrnB-150" value="&lt;div style=&quot;font-size: 14px;&quot;&gt;&lt;font style=&quot;color: rgb(0, 0, 0); direction: ltr; letter-spacing: 0px; line-height: 120%; opacity: 1; font-size: 14px;&quot;&gt;&lt;font style=&quot;font-size: 14px;&quot;&gt;end&lt;/font&gt;&lt;br style=&quot;font-size: 14px;&quot;&gt;&lt;/font&gt;&lt;/div&gt;" style="verticalAlign=middle;align=center;vsdxID=1;fillColor=#FFFFFF;gradientColor=none;shape=stencil(tVJBDsIgEHwNRxoEG+O51n8QS9uNCM2Ctv5eEI2ttV6Mt9md2d0MDBGFa2WnCGfOoz2qHirfErEjnINpFYIPiIiSiKK2qBq0Z1OlupNRGdHJXuKGIc1xluV5nOLsmjorxu71Psk1mJF8s83WX+USD4HD+XZ86PMkX1745KkcwFG0XnqwZsJpiY2i4RSttWwmlOuV6mbtj17m1n9ysvySf/ESwOtPa9A6RWLMv2cgtFJ+RHkD);strokeColor=#000000;spacingTop=-1;spacingBottom=-1;spacingLeft=-1;spacingRight=-1;points=[[0.5,0,0],[0.5,0.5,0],[1,0.5,0]];labelBackgroundColor=none;rounded=0;html=1;whiteSpace=wrap;fontFamily=consolas;fontSize=14;" parent="1" vertex="1">
          <mxGeometry x="319" y="520" width="120" height="40" as="geometry" />
        </mxCell>
        <mxCell id="1caec2M4n0j3xE_ux1Xj-1" value="pick contract &lt;br&gt;features" style="shape=parallelogram;perimeter=parallelogramPerimeter;whiteSpace=wrap;html=1;fixedSize=1;" vertex="1" parent="1">
          <mxGeometry x="319" y="140" width="120" height="40" as="geometry" />
        </mxCell>
      </root>
    </mxGraphModel>
  </diagram>
  <diagram id="m0rB7CYl6gcpjbh7R77p" name="fungible-loader">
    <mxGraphModel dx="863" dy="512" grid="1" gridSize="10" guides="1" tooltips="1" connect="1" arrows="1" fold="1" page="1" pageScale="1" pageWidth="827" pageHeight="1169" math="0" shadow="0">
      <root>
        <mxCell id="0" />
        <mxCell id="1" parent="0" />
        <mxCell id="FiJHbpNRiKNuAI4GBwq8-1" style="edgeStyle=orthogonalEdgeStyle;rounded=0;orthogonalLoop=1;jettySize=auto;html=1;exitX=0;exitY=0.5;exitDx=0;exitDy=0;entryX=0.5;entryY=0;entryDx=0;entryDy=0;" parent="1" source="FiJHbpNRiKNuAI4GBwq8-3" target="FiJHbpNRiKNuAI4GBwq8-7" edge="1">
          <mxGeometry relative="1" as="geometry">
            <Array as="points">
              <mxPoint x="290" y="130" />
              <mxPoint x="290" y="300" />
              <mxPoint x="370" y="300" />
            </Array>
          </mxGeometry>
        </mxCell>
        <mxCell id="FiJHbpNRiKNuAI4GBwq8-2" style="edgeStyle=orthogonalEdgeStyle;rounded=0;orthogonalLoop=1;jettySize=auto;html=1;exitX=1;exitY=0.5;exitDx=0;exitDy=0;entryX=0.5;entryY=0;entryDx=0;entryDy=0;" parent="1" source="FiJHbpNRiKNuAI4GBwq8-3" target="DNjbYUfCtZd0t5PwZy4j-1" edge="1">
          <mxGeometry relative="1" as="geometry">
            <mxPoint x="450" y="180" as="targetPoint" />
          </mxGeometry>
        </mxCell>
        <mxCell id="FiJHbpNRiKNuAI4GBwq8-3" value="metadata.json&lt;br&gt;exists?" style="rhombus;whiteSpace=wrap;html=1;" parent="1" vertex="1">
          <mxGeometry x="310" y="100" width="120" height="60" as="geometry" />
        </mxCell>
        <mxCell id="FiJHbpNRiKNuAI4GBwq8-4" style="edgeStyle=orthogonalEdgeStyle;rounded=0;orthogonalLoop=1;jettySize=auto;html=1;exitX=0.5;exitY=1;exitDx=0;exitDy=0;entryX=0.5;entryY=0;entryDx=0;entryDy=0;" parent="1" source="DNjbYUfCtZd0t5PwZy4j-1" target="FiJHbpNRiKNuAI4GBwq8-7" edge="1">
          <mxGeometry relative="1" as="geometry">
            <Array as="points">
              <mxPoint x="450" y="300" />
              <mxPoint x="370" y="300" />
            </Array>
            <mxPoint x="450" y="220" as="sourcePoint" />
          </mxGeometry>
        </mxCell>
        <mxCell id="FiJHbpNRiKNuAI4GBwq8-6" style="edgeStyle=orthogonalEdgeStyle;rounded=0;orthogonalLoop=1;jettySize=auto;html=1;exitX=0.5;exitY=1;exitDx=0;exitDy=0;entryX=0.5;entryY=0;entryDx=0;entryDy=0;entryPerimeter=0;" parent="1" source="FiJHbpNRiKNuAI4GBwq8-7" target="FiJHbpNRiKNuAI4GBwq8-11" edge="1">
          <mxGeometry relative="1" as="geometry" />
        </mxCell>
        <mxCell id="FiJHbpNRiKNuAI4GBwq8-7" value="publish metadata to IPFS" style="rounded=0;whiteSpace=wrap;html=1;" parent="1" vertex="1">
          <mxGeometry x="310" y="320" width="120" height="40" as="geometry" />
        </mxCell>
        <mxCell id="FiJHbpNRiKNuAI4GBwq8-8" value="init SC with reference to metadata" style="rounded=0;whiteSpace=wrap;html=1;" parent="1" vertex="1">
          <mxGeometry x="310" y="380" width="120" height="40" as="geometry" />
        </mxCell>
        <mxCell id="FiJHbpNRiKNuAI4GBwq8-9" value="validate the metadata JSON" style="rounded=0;whiteSpace=wrap;html=1;" parent="1" vertex="1">
          <mxGeometry x="390" y="240" width="120" height="40" as="geometry" />
        </mxCell>
        <mxCell id="FiJHbpNRiKNuAI4GBwq8-10" value="create metadata via form table" style="rounded=0;whiteSpace=wrap;html=1;" parent="1" vertex="1">
          <mxGeometry x="230" y="180" width="120" height="40" as="geometry" />
        </mxCell>
        <mxCell id="FiJHbpNRiKNuAI4GBwq8-11" value="&lt;div style=&quot;font-size: 14px;&quot;&gt;&lt;font style=&quot;color: rgb(0, 0, 0); direction: ltr; letter-spacing: 0px; line-height: 120%; opacity: 1; font-size: 14px;&quot;&gt;&lt;font style=&quot;font-size: 14px;&quot;&gt;end&lt;/font&gt;&lt;br style=&quot;font-size: 14px;&quot;&gt;&lt;/font&gt;&lt;/div&gt;" style="verticalAlign=middle;align=center;vsdxID=1;fillColor=#FFFFFF;gradientColor=none;shape=stencil(tVJBDsIgEHwNRxoEG+O51n8QS9uNCM2Ctv5eEI2ttV6Mt9md2d0MDBGFa2WnCGfOoz2qHirfErEjnINpFYIPiIiSiKK2qBq0Z1OlupNRGdHJXuKGIc1xluV5nOLsmjorxu71Psk1mJF8s83WX+USD4HD+XZ86PMkX1745KkcwFG0XnqwZsJpiY2i4RSttWwmlOuV6mbtj17m1n9ysvySf/ESwOtPa9A6RWLMv2cgtFJ+RHkD);strokeColor=#000000;spacingTop=-1;spacingBottom=-1;spacingLeft=-1;spacingRight=-1;points=[[0.5,0,0],[0.5,0.5,0],[1,0.5,0]];labelBackgroundColor=none;rounded=0;html=1;whiteSpace=wrap;fontFamily=consolas;fontSize=14;" parent="1" vertex="1">
          <mxGeometry x="310" y="440" width="120" height="40" as="geometry" />
        </mxCell>
        <mxCell id="FiJHbpNRiKNuAI4GBwq8-12" style="edgeStyle=orthogonalEdgeStyle;rounded=0;orthogonalLoop=1;jettySize=auto;html=1;entryX=0.5;entryY=0;entryDx=0;entryDy=0;" parent="1" source="FiJHbpNRiKNuAI4GBwq8-13" target="FiJHbpNRiKNuAI4GBwq8-3" edge="1">
          <mxGeometry relative="1" as="geometry" />
        </mxCell>
        <mxCell id="FiJHbpNRiKNuAI4GBwq8-13" value="&lt;div style=&quot;font-size: 14px;&quot;&gt;&lt;font style=&quot;color: rgb(0, 0, 0); direction: ltr; letter-spacing: 0px; line-height: 120%; opacity: 1; font-size: 14px;&quot;&gt;begin&lt;/font&gt;&lt;/div&gt;" style="verticalAlign=middle;align=center;vsdxID=1;fillColor=#FFFFFF;gradientColor=none;shape=stencil(tVJBDsIgEHwNRxoEG+O51n8QS9uNCM2Ctv5eEI2ttV6Mt9md2d0MDBGFa2WnCGfOoz2qHirfErEjnINpFYIPiIiSiKK2qBq0Z1OlupNRGdHJXuKGIc1xluV5nOLsmjorxu71Psk1mJF8s83WX+USD4HD+XZ86PMkX1745KkcwFG0XnqwZsJpiY2i4RSttWwmlOuV6mbtj17m1n9ysvySf/ESwOtPa9A6RWLMv2cgtFJ+RHkD);strokeColor=#000000;spacingTop=-1;spacingBottom=-1;spacingLeft=-1;spacingRight=-1;points=[[0.5,0,0],[0.5,0.5,0],[1,0.5,0]];labelBackgroundColor=none;rounded=0;html=1;whiteSpace=wrap;fontFamily=consolas;fontSize=14;" parent="1" vertex="1">
          <mxGeometry x="310" y="40" width="120" height="40" as="geometry" />
        </mxCell>
        <mxCell id="FiJHbpNRiKNuAI4GBwq8-14" value="fungible_loader()" style="text;html=1;align=left;verticalAlign=middle;resizable=0;points=[];autosize=1;strokeColor=none;fillColor=none;fontFamily=consolas;fontSize=14;" parent="1" vertex="1">
          <mxGeometry x="460" y="45" width="150" height="30" as="geometry" />
        </mxCell>
        <mxCell id="FiJHbpNRiKNuAI4GBwq8-15" value="" style="edgeStyle=orthogonalEdgeStyle;rounded=0;orthogonalLoop=1;jettySize=auto;html=1;dashed=1;endArrow=none;endFill=0;" parent="1" source="FiJHbpNRiKNuAI4GBwq8-16" target="FiJHbpNRiKNuAI4GBwq8-13" edge="1">
          <mxGeometry relative="1" as="geometry" />
        </mxCell>
        <mxCell id="FiJHbpNRiKNuAI4GBwq8-16" value="" style="strokeWidth=1;html=1;shape=mxgraph.flowchart.annotation_2;align=left;labelPosition=right;pointerEvents=1;rounded=0;fontFamily=consolas;fontSize=14;" parent="1" vertex="1">
          <mxGeometry x="450" y="43.75" width="10" height="32.5" as="geometry" />
        </mxCell>
        <mxCell id="FiJHbpNRiKNuAI4GBwq8-17" value="yes" style="text;html=1;align=center;verticalAlign=middle;resizable=0;points=[];autosize=1;strokeColor=none;fillColor=none;" parent="1" vertex="1">
          <mxGeometry x="430" y="100" width="40" height="30" as="geometry" />
        </mxCell>
        <mxCell id="DNjbYUfCtZd0t5PwZy4j-1" value="supply file or &lt;br&gt;URL to metadata" style="shape=parallelogram;perimeter=parallelogramPerimeter;whiteSpace=wrap;html=1;fixedSize=1;" vertex="1" parent="1">
          <mxGeometry x="390" y="180" width="120" height="40" as="geometry" />
        </mxCell>
      </root>
    </mxGraphModel>
  </diagram>
  <diagram id="nIo_58EXDDxG_IPFCLIX" name="NFT-loader">
    <mxGraphModel dx="1036" dy="614" grid="1" gridSize="10" guides="1" tooltips="1" connect="1" arrows="1" fold="1" page="1" pageScale="1" pageWidth="827" pageHeight="1169" math="0" shadow="0">
      <root>
        <mxCell id="0" />
        <mxCell id="1" parent="0" />
        <mxCell id="nn9AeGZ7i9gTCMUaqX6W-1" style="edgeStyle=orthogonalEdgeStyle;rounded=0;orthogonalLoop=1;jettySize=auto;html=1;entryX=0.5;entryY=0;entryDx=0;entryDy=0;" parent="1" source="nn9AeGZ7i9gTCMUaqX6W-2" target="nn9AeGZ7i9gTCMUaqX6W-9" edge="1">
          <mxGeometry relative="1" as="geometry" />
        </mxCell>
        <mxCell id="nn9AeGZ7i9gTCMUaqX6W-2" value="&lt;div style=&quot;font-size: 14px;&quot;&gt;&lt;font style=&quot;color: rgb(0, 0, 0); direction: ltr; letter-spacing: 0px; line-height: 120%; opacity: 1; font-size: 14px;&quot;&gt;begin&lt;/font&gt;&lt;/div&gt;" style="verticalAlign=middle;align=center;vsdxID=1;fillColor=#FFFFFF;gradientColor=none;shape=stencil(tVJBDsIgEHwNRxoEG+O51n8QS9uNCM2Ctv5eEI2ttV6Mt9md2d0MDBGFa2WnCGfOoz2qHirfErEjnINpFYIPiIiSiKK2qBq0Z1OlupNRGdHJXuKGIc1xluV5nOLsmjorxu71Psk1mJF8s83WX+USD4HD+XZ86PMkX1745KkcwFG0XnqwZsJpiY2i4RSttWwmlOuV6mbtj17m1n9ysvySf/ESwOtPa9A6RWLMv2cgtFJ+RHkD);strokeColor=#000000;spacingTop=-1;spacingBottom=-1;spacingLeft=-1;spacingRight=-1;points=[[0.5,0,0],[0.5,0.5,0],[1,0.5,0]];labelBackgroundColor=none;rounded=0;html=1;whiteSpace=wrap;fontFamily=consolas;fontSize=14;" parent="1" vertex="1">
          <mxGeometry x="280" y="80" width="120" height="40" as="geometry" />
        </mxCell>
        <mxCell id="nn9AeGZ7i9gTCMUaqX6W-3" value="NFT_loader()" style="text;html=1;align=left;verticalAlign=middle;resizable=0;points=[];autosize=1;strokeColor=none;fillColor=none;fontFamily=consolas;fontSize=14;" parent="1" vertex="1">
          <mxGeometry x="430" y="85" width="120" height="30" as="geometry" />
        </mxCell>
        <mxCell id="nn9AeGZ7i9gTCMUaqX6W-4" value="" style="edgeStyle=orthogonalEdgeStyle;rounded=0;orthogonalLoop=1;jettySize=auto;html=1;dashed=1;endArrow=none;endFill=0;" parent="1" source="nn9AeGZ7i9gTCMUaqX6W-5" target="nn9AeGZ7i9gTCMUaqX6W-2" edge="1">
          <mxGeometry relative="1" as="geometry" />
        </mxCell>
        <mxCell id="nn9AeGZ7i9gTCMUaqX6W-5" value="" style="strokeWidth=1;html=1;shape=mxgraph.flowchart.annotation_2;align=left;labelPosition=right;pointerEvents=1;rounded=0;fontFamily=consolas;fontSize=14;" parent="1" vertex="1">
          <mxGeometry x="420" y="83.75" width="10" height="32.5" as="geometry" />
        </mxCell>
        <mxCell id="nn9AeGZ7i9gTCMUaqX6W-6" value="&lt;div style=&quot;font-size: 14px;&quot;&gt;&lt;font style=&quot;color: rgb(0, 0, 0); direction: ltr; letter-spacing: 0px; line-height: 120%; opacity: 1; font-size: 14px;&quot;&gt;&lt;font style=&quot;font-size: 14px;&quot;&gt;end&lt;/font&gt;&lt;br style=&quot;font-size: 14px;&quot;&gt;&lt;/font&gt;&lt;/div&gt;" style="verticalAlign=middle;align=center;vsdxID=1;fillColor=#FFFFFF;gradientColor=none;shape=stencil(tVJBDsIgEHwNRxoEG+O51n8QS9uNCM2Ctv5eEI2ttV6Mt9md2d0MDBGFa2WnCGfOoz2qHirfErEjnINpFYIPiIiSiKK2qBq0Z1OlupNRGdHJXuKGIc1xluV5nOLsmjorxu71Psk1mJF8s83WX+USD4HD+XZ86PMkX1745KkcwFG0XnqwZsJpiY2i4RSttWwmlOuV6mbtj17m1n9ysvySf/ESwOtPa9A6RWLMv2cgtFJ+RHkD);strokeColor=#000000;spacingTop=-1;spacingBottom=-1;spacingLeft=-1;spacingRight=-1;points=[[0.5,0,0],[0.5,0.5,0],[1,0.5,0]];labelBackgroundColor=none;rounded=0;html=1;whiteSpace=wrap;fontFamily=consolas;fontSize=14;" parent="1" vertex="1">
          <mxGeometry x="280" y="600" width="120" height="40" as="geometry" />
        </mxCell>
        <mxCell id="nn9AeGZ7i9gTCMUaqX6W-7" style="edgeStyle=orthogonalEdgeStyle;rounded=0;orthogonalLoop=1;jettySize=auto;html=1;exitX=1;exitY=0.5;exitDx=0;exitDy=0;entryX=0.5;entryY=0;entryDx=0;entryDy=0;" parent="1" source="nn9AeGZ7i9gTCMUaqX6W-9" target="wYMB-9ATSHEK1uNTKOog-1" edge="1">
          <mxGeometry relative="1" as="geometry">
            <mxPoint x="420" y="220" as="targetPoint" />
          </mxGeometry>
        </mxCell>
        <mxCell id="nn9AeGZ7i9gTCMUaqX6W-8" style="edgeStyle=orthogonalEdgeStyle;rounded=0;orthogonalLoop=1;jettySize=auto;html=1;exitX=0;exitY=0.5;exitDx=0;exitDy=0;entryX=0.5;entryY=0;entryDx=0;entryDy=0;" parent="1" source="nn9AeGZ7i9gTCMUaqX6W-9" target="nn9AeGZ7i9gTCMUaqX6W-13" edge="1">
          <mxGeometry relative="1" as="geometry">
            <Array as="points">
              <mxPoint x="260" y="170" />
              <mxPoint x="260" y="400" />
              <mxPoint x="340" y="400" />
            </Array>
          </mxGeometry>
        </mxCell>
        <mxCell id="nn9AeGZ7i9gTCMUaqX6W-9" value="metadata exists?" style="rhombus;whiteSpace=wrap;html=1;" parent="1" vertex="1">
          <mxGeometry x="280" y="140" width="120" height="60" as="geometry" />
        </mxCell>
        <mxCell id="nn9AeGZ7i9gTCMUaqX6W-10" style="edgeStyle=orthogonalEdgeStyle;rounded=0;orthogonalLoop=1;jettySize=auto;html=1;exitX=0.5;exitY=1;exitDx=0;exitDy=0;entryX=0.5;entryY=0;entryDx=0;entryDy=0;" parent="1" source="wYMB-9ATSHEK1uNTKOog-1" target="nn9AeGZ7i9gTCMUaqX6W-13" edge="1">
          <mxGeometry relative="1" as="geometry">
            <Array as="points">
              <mxPoint x="420" y="250" />
              <mxPoint x="420" y="400" />
              <mxPoint x="340" y="400" />
            </Array>
            <mxPoint x="420" y="260" as="sourcePoint" />
          </mxGeometry>
        </mxCell>
        <mxCell id="nn9AeGZ7i9gTCMUaqX6W-12" style="edgeStyle=orthogonalEdgeStyle;rounded=0;orthogonalLoop=1;jettySize=auto;html=1;exitX=0.5;exitY=1;exitDx=0;exitDy=0;entryX=0.5;entryY=0;entryDx=0;entryDy=0;entryPerimeter=0;" parent="1" source="nn9AeGZ7i9gTCMUaqX6W-13" target="nn9AeGZ7i9gTCMUaqX6W-6" edge="1">
          <mxGeometry relative="1" as="geometry" />
        </mxCell>
        <mxCell id="nn9AeGZ7i9gTCMUaqX6W-13" value="publish files to IPFS" style="rounded=0;whiteSpace=wrap;html=1;" parent="1" vertex="1">
          <mxGeometry x="280" y="420" width="120" height="40" as="geometry" />
        </mxCell>
        <mxCell id="nn9AeGZ7i9gTCMUaqX6W-14" value="publish metadata to IPFS" style="rounded=0;whiteSpace=wrap;html=1;" parent="1" vertex="1">
          <mxGeometry x="280" y="480" width="120" height="40" as="geometry" />
        </mxCell>
        <mxCell id="nn9AeGZ7i9gTCMUaqX6W-15" value="init SC with reference to metadata" style="rounded=0;whiteSpace=wrap;html=1;" parent="1" vertex="1">
          <mxGeometry x="280" y="540" width="120" height="40" as="geometry" />
        </mxCell>
        <mxCell id="nn9AeGZ7i9gTCMUaqX6W-16" value="validate the metadata JSON" style="rounded=0;whiteSpace=wrap;html=1;" parent="1" vertex="1">
          <mxGeometry x="360" y="280" width="120" height="40" as="geometry" />
        </mxCell>
        <mxCell id="nn9AeGZ7i9gTCMUaqX6W-17" value="check the links inside metadata" style="rounded=0;whiteSpace=wrap;html=1;" parent="1" vertex="1">
          <mxGeometry x="360" y="340" width="120" height="40" as="geometry" />
        </mxCell>
        <mxCell id="nn9AeGZ7i9gTCMUaqX6W-18" value="fill metadata via form" style="rounded=0;whiteSpace=wrap;html=1;" parent="1" vertex="1">
          <mxGeometry x="200" y="220" width="120" height="40" as="geometry" />
        </mxCell>
        <mxCell id="nn9AeGZ7i9gTCMUaqX6W-19" value="yes" style="text;html=1;align=center;verticalAlign=middle;resizable=0;points=[];autosize=1;strokeColor=none;fillColor=none;" parent="1" vertex="1">
          <mxGeometry x="390" y="140" width="40" height="30" as="geometry" />
        </mxCell>
        <mxCell id="iPBA8NUD6iA9zuOzx-_R-1" value="Get the number of NFTs" style="rounded=0;whiteSpace=wrap;html=1;" parent="1" vertex="1">
          <mxGeometry x="200" y="280" width="120" height="40" as="geometry" />
        </mxCell>
        <mxCell id="iPBA8NUD6iA9zuOzx-_R-2" value="Fill in the metadata for each NFT" style="rounded=0;whiteSpace=wrap;html=1;" parent="1" vertex="1">
          <mxGeometry x="200" y="340" width="120" height="40" as="geometry" />
        </mxCell>
        <mxCell id="wYMB-9ATSHEK1uNTKOog-1" value="supply file or &lt;br&gt;URL to metadata" style="shape=parallelogram;perimeter=parallelogramPerimeter;whiteSpace=wrap;html=1;fixedSize=1;" vertex="1" parent="1">
          <mxGeometry x="360" y="220" width="120" height="40" as="geometry" />
        </mxCell>
      </root>
    </mxGraphModel>
  </diagram>
</mxfile>
